{
.appVersion = "3151";
.formatVersion = 3;
customParameters = (
{
name = vendorID;
value = ADBO;
},
{
name = panose;
value = (
2,
11,
2,
0,
0,
0,
0,
0,
0,
0
);
},
{
name = unicodeRanges;
value = (
0,
1,
7,
29,
36,
42,
43,
44,
45,
48,
49,
50,
51,
52,
54,
55,
57,
59,
61,
65,
66,
68
);
},
{
name = codePageRanges;
value = (
"1252",
"1250",
"1251",
"1258",
"932",
"936",
"bit 29",
"bit 30"
);
},
{
name = fsType;
value = (
);
}
);
date = "2021-04-29 08:43:11 +0000";
familyName = "Yaku Han JP";
featurePrefixes = (
{
automatic = 1;
code = "languagesystem DFLT dflt;
";
name = Languagesystems;
}
);
features = (
{
automatic = 1;
code = "feature vert;
feature vrt2;
";
tag = aalt;
},
{
code = "sub comma-han by comma-han.vert;
sub period-han by period-han.vert;
sub colon.full by colon.full.vert;
sub blacklenticularbracketleft by blacklenticularbracketleft.vert;
sub blacklenticularbracketright by blacklenticularbracketright.vert;
sub cornerbracketleft by cornerbracketleft.vert;
sub cornerbracketright by cornerbracketright.vert;
sub dblanglebracketleft by dblanglebracketleft.vert;
sub dblanglebracketright by dblanglebracketright.vert;
sub tortoiseshellbracketleft by tortoiseshellbracketleft.vert;
sub tortoiseshellbracketright by tortoiseshellbracketright.vert;
sub whitecornerbracketleft by whitecornerbracketleft.vert;
sub whitecornerbracketright by whitecornerbracketright.vert;
sub whitelenticularbracketleft by whitelenticularbracketleft.vert;
sub whitelenticularbracketright by whitelenticularbracketright.vert;
sub braceleft.full by braceleft.full.vert;
sub braceright.full by braceright.full.vert;
sub bracketleft.full by bracketleft.full.vert;
sub bracketright.full by bracketright.full.vert;
sub parenleft.full by parenleft.full.vert;
sub parenright.full by parenright.full.vert;
sub angleLeft by anglebracketleft.vert;
sub angleRight by anglebracketright.vert;";
tag = vert;
},
{
automatic = 1;
code = "sub comma-han by comma-han.vert;
sub period-han by period-han.vert;

glyphs = (
{
glyphname = .notdef;
lastChange = "2023-08-27 12:32:00 +0000";
layers = (
{
layerId = m01;
shapes = (
{
closed = 1;
nodes = (
(900,880,l),
(100,880,l),
(100,-120,l),
(900,-120,l)
);
},
{
closed = 1;
nodes = (
(818,830,l),
(500,421,l),
(182,830,l)
);
},
{
closed = 1;
nodes = (
(850,-29,l),
(532,380,l),
(850,789,l)
);
},
{
closed = 1;
nodes = (
(818,-70,l),
(182,-70,l),
(500,339,l)
);
},
{
closed = 1;
nodes = (
(150,-29,l),
(150,789,l),
(468,380,l)
);
}
);
vertWidth = 1000;
width = 1000;
}
);
note = ".notdef";
},
{
glyphname = "comma-han";
lastChange = "2023-08-27 12:32:00 +0000";
layers = (
{
layerId = m01;
shapes = (
{
closed = 1;
nodes = (
(322,45,o),
(245,126,o),
(165,203,o),
(129,232,q),
(47,160,l),
(82,131,o),
(159,57,o),
(234,-23,o),
(265,-61,q),
(350,11,l)
);
}
);
vertWidth = 1000;
width = 1000;
}
);
note = uni3001;
unicode = 12289;
},
{
glyphname = "comma-han.vert";
lastChange = "2023-08-27 12:32:00 +0000";
layers = (
{
layerId = m01;
shapes = (
{
closed = 1;
nodes = (
(922,648,o),
(847,726,o),
(768,802,o),
(733,830,q),
(652,760,l),
(704,717,o),
(821,599,o),
(867,542,q),
(950,614,l)
);
}
);
vertWidth = 1000;
width = 1000;
}
);
note = uniFE11;
unicode = 65041;
},
{
glyphname = "period-han";
lastChange = "2023-08-27 12:32:00 +0000";
layers = (
{
layerId = m01;
shapes = (
{
closed = 1;
nodes = (
(80,203,o),
(37,133,o),
(37,89,qs),
(37,46,o),
(80,-25,o),
(151,-67,o),
(194,-67,qs),
(238,-67,o),
(308,-25,o),
(350,46,o),
(350,89,qs),
(350,133,o),
(308,203,o),
(238,246,o),
(194,246,qs),
(151,246,o)
);
},
{
closed = 1;
nodes = (
(124,18,o),
(98,63,o),
(98,89,qs),
(98,116,o),
(124,159,o),
(168,185,o),
(194,185,qs),
(221,185,o),
(265,159,o),
(290,116,o),
(290,89,qs),
(290,49,o),
(234,-7,o),
(194,-7,qs),
(168,-7,o)
);
}
);
vertWidth = 1000;
width = 1000;
}
);
note = uni3002;
unicode = 12290;
},
{
glyphname = "period-han.vert";
lastChange = "2023-08-27 12:32:00 +0000";
layers = (
{
layerId = m01;
shapes = (
{
closed = 1;
nodes = (
(688,778,o),
(646,707,o),
(646,665,qs),
(646,623,o),
(688,553,o),
(758,511,o),
(800,511,qs),
(843,511,o),
(913,553,o),
(954,623,o),
(954,665,qs),
(954,708,o),
(913,778,o),
(843,819,o),
(800,819,qs),
(758,819,o)
);
},
{
closed = 1;
nodes = (
(731,596,o),
(706,639,o),
(706,665,qs),
(706,692,o),
(731,734,o),
(775,759,o),
(800,759,qs),
(827,759,o),
(869,734,o),
(895,692,o),
(895,665,qs),
(895,626,o),
(840,570,o),
(800,570,qs),
(775,570,o)
);
}
);
vertWidth = 1000;
width = 1000;
}
);
note = uniFE12;
unicode = 65042;
},
{
glyphname = hyphenationpoint;
lastChange = "2023-08-27 12:32:00 +0000";
layers = (
{
layerId = m01;
shapes = (
{
closed = 1;
nodes = (
(415,464,o),
(384,412,o),
(384,380,qs),
(384,348,o),
(416,295,o),
(469,264,o),
(500,264,qs),
(533,264,o),
(584,296,o),
(616,349,o),
(616,380,qs),
(616,413,o),
(584,464,o),
(532,496,o),
(500,496,qs),
(468,496,o)
);
}
);
vertWidth = 1000;
width = 1000;
}
);
note = uni2027;
unicode = (8231,12539);
},
{
glyphname = colon.full;
lastChange = "2023-08-27 12:32:00 +0000";
layers = (
{
layerId = m01;
shapes = (
{
closed = 1;
nodes = (
(584,578,o),
(584,615,qs),
(584,652,o),
(534,699,o),
(500,699,qs),
(466,699,o),
(416,652,o),
(416,615,qs),
(416,578,o),
(466,532,o),
(500,532,qs),
(534,532,o)
);
},
{
closed = 1;
nodes = (
(584,94,o),
(584,130,qs),
(584,168,o),
(534,214,o),
(500,214,qs),
(466,214,o),
(416,168,o),
(416,130,qs),
(416,94,o),
(466,48,o),
(500,48,qs),
(534,48,o)
);
}
);
vertWidth = 1000;
width = 1000;
}
);
note = uniFF1A;
unicode = 65306;
},
{
glyphname = exclam.full;
lastChange = "2023-08-27 12:32:00 +0000";
layers = (
{
layerId = m01;
shapes = (
{
closed = 1;
nodes = (
(564,616,l),
(567,748,l),
(433,748,l),
(436,616,l),
(459,248,l),
(541,248,l)
);
},
{
closed = 1;
nodes = (
(575,35,o),
(575,69,qs),
(575,103,o),
(531,145,o),
(500,145,qs),
(469,145,o),
(425,103,o),
(425,69,qs),
(425,35,o),
(468,-7,o),
(500,-7,qs),
(531,-7,o)
);
}
);
vertWidth = 1000;
width = 1000;
}
);
note = uniFF01;
unicode = 65281;
},
{
glyphname = question.full;
lastChange = "2023-08-27 12:32:00 +0000";
layers = (
{
layerId = m01;
shapes = (
{
closed = 1;
nodes = (
(533,285,o),
(559,340,o),
(606,385,o),
(663,428,o),
(714,474,o),
(747,531,o),
(747,568,qs),
(747,630,o),
(686,716,o),
(578,761,o),
(507,761,qs),
(426,761,o),
(300,696,o),
(252,642,q),
(318,581,l),
(358,624,o),
(445,666,o),
(494,666,qs),
(540,666,o),
(603,639,o),
(635,591,o),
(635,558,qs),
(635,532,o),
(602,487,o),
(553,446,o),
(498,403,o),
(452,352,o),
(429,289,o),
(436,248,q),
(538,248,l)
);
},
{
closed = 1;
nodes = (
(563,35,o),
(563,69,qs),
(563,103,o),
(519,145,o),
(488,145,qs),
(457,145,o),
(414,103,o),
(414,69,qs),
(414,35,o),
(456,-7,o),
(488,-7,qs),
(519,-7,o)
);
}
);
vertWidth = 1000;
width = 1000;
}
);
note = uniFF1F;
unicode = 65311;
},
{
glyphname = semicolon.full;
lastChange = "2023-08-27 12:32:00 +0000";
layers = (
{
layerId = m01;
shapes = (
{
closed = 1;
nodes = (
(601,45,o),
(601,135,qs),
(601,197,o),
(552,269,o),
(505,269,qs),
(471,269,o),
(421,228,o),
(421,189,qs),
(421,150,o),
(471,108,o),
(504,108,qs),
(520,108,o),
(548,119,o),
(560,131,q),
(505,213,l),
(519,117,l),
(520,61,o),
(455,-23,o),
(391,-50,q),
(418,-115,l),
(504,-84,o)
);
},
{
closed = 1;
nodes = (
(584,578,o),
(584,615,qs),
(584,652,o),
(534,699,o),
(500,699,qs),
(466,699,o),
(416,652,o),
(416,615,qs),
(416,578,o),
(466,532,o),
(500,532,qs),
(534,532,o)
);
}
);
vertWidth = 1000;
width = 1000;
}
);
note = uniFF1B;
unicode = 65307;
},
{
glyphname = colon.full.vert;
lastChange = "2023-08-27 12:32:00 +0000";
layers = (
{
layerId = m01;
shapes = (
{
closed = 1;
nodes = (
(342,336,o),
(342,373,qs),
(342,411,o),
(292,457,o),
(258,457,qs),
(224,457,o),
(174,411,o),
(174,373,qs),
(174,336,o),
(224,290,o),
(258,290,qs),
(292,290,o)
);
},
{
closed = 1;
nodes = (
(826,336,o),
(826,373,qs),
(826,411,o),
(776,457,o),
(742,457,qs),
(708,457,o),
(658,411,o),
(658,373,qs),
(658,336,o),
(708,290,o),
(742,290,qs),
(776,290,o)
);
}
);
vertWidth = 1000;
width = 1000;
}
);
note = glyph17776;
},
{
glyphname = angleLeft;
lastChange = "2023-08-27 12:32:00 +0000";
layers = (
{
layerId = m01;
shapes = (
{
closed = 1;
nodes = (
(947,814,l),
(869,848,l),
(576,380,l),
(869,-88,l),
(947,-54,l),
(676,380,l)
);
}
);
vertWidth = 1000;
width = 1000;
}
);
note = uni2329;
unicode = (9001,12296);
},
{
glyphname = angleRight;
lastChange = "2023-08-27 12:32:00 +0000";
layers = (
{
layerId = m01;
shapes = (
{
closed = 1;
nodes = (
(424,380,l),
(131,848,l),
(53,814,l),
(324,380,l),
(53,-54,l),
(131,-88,l)
);
}
);
vertWidth = 1000;
width = 1000;
}
);
note = uni3009;
unicode = (9002,12297);
},
{
glyphname = blacklenticularbracketleft;
lastChange = "2023-08-27 12:32:00 +0000";
layers = (
{
layerId = m01;
shapes = (
{
closed = 1;
nodes = (
(664,848,l),
(664,-88,l),
(968,-88,l),
(968,-83,l),
(914,-37,o),
(824,102,o),
(770,278,o),
(770,380,qs),
(770,482,o),
(824,658,o),
(914,798,o),
(968,843,q),
(968,848,l)
);
}
);
vertWidth = 1000;
width = 1000;
}
);
note = uni3010;
unicode = 12304;
},
{
glyphname = blacklenticularbracketright;
lastChange = "2023-08-27 12:32:00 +0000";
layers = (
{
layerId = m01;
shapes = (
{
closed = 1;
nodes = (
(32,848,l),
(32,843,l),
(87,798,o),
(176,658,o),
(230,482,o),
(230,380,qs),
(230,278,o),
(176,102,o),
(87,-37,o),
(32,-83,q),
(32,-88,l),
(336,-88,l),
(336,848,l)
);
}
);
vertWidth = 1000;
width = 1000;
}
);
note = uni3011;
unicode = 12305;
},
{
glyphname = braceleft.full;
lastChange = "2023-08-27 12:32:00 +0000";
layers = (
{
layerId = m01;
shapes = (
{
closed = 1;
nodes = (
(968,-33,l),
(936,-33,ls),
(894,-33,o),
(866,10,o),
(866,61,qs),
(866,110,o),
(871,201,o),
(871,255,qs),
(871,312,o),
(838,368,o),
(800,378,q),
(800,382,l),
(838,393,o),
(871,449,o),
(871,505,qs),
(871,560,o),
(866,651,o),
(866,699,qs),
(866,751,o),
(894,793,o),
(936,793,qs),
(968,793,l),
(968,856,l),
(913,856,ls),
(845,856,o),
(780,792,o),
(780,704,qs),
(780,666,o),
(785,600,o),
(790,536,o),
(790,499,qs),
(790,478,o),
(773,440,o),
(732,415,o),
(695,414,q),
(695,346,l),
(732,346,o),
(773,320,o),
(790,283,o),
(790,262,qs),
(790,225,o),
(785,161,o),
(780,95,o),
(780,56,qs),
(780,-31,o),
(845,-95,o),
(913,-95,qs),
(968,-95,l)
);
}
);
vertWidth = 1000;
width = 1000;
}
);
note = uniFF5B;
unicode = 65371;
},
{
glyphname = braceright.full;
lastChange = "2023-08-27 12:32:00 +0000";
layers = (
{
layerId = m01;
shapes = (
{
closed = 1;
nodes = (
(32,-33,l),
(64,-33,ls),
(106,-33,o),
(134,10,o),
(134,61,qs),
(134,110,o),
(129,201,o),
(129,255,qs),
(129,312,o),
(162,368,o),
(200,378,q),
(200,382,l),
(162,393,o),
(129,449,o),
(129,505,qs),
(129,560,o),
(134,651,o),
(134,699,qs),
(134,751,o),
(106,793,o),
(64,793,qs),
(32,793,l),
(32,856,l),
(87,856,ls),
(155,856,o),
(220,792,o),
(220,704,qs),
(220,666,o),
(215,600,o),
(210,536,o),
(210,499,qs),
(210,478,o),
(227,440,o),
(269,415,o),
(305,414,q),
(305,346,l),
(269,346,o),
(227,320,o),
(210,283,o),
(210,262,qs),
(210,225,o),
(215,161,o),
(220,95,o),
(220,56,qs),
(220,-31,o),
(155,-95,o),
(87,-95,qs),
(32,-95,l)
);
}
);
vertWidth = 1000;
width = 1000;
}
);
note = uniFF5D;
unicode = 65373;
},
{
glyphname = cornerbracketleft;
lastChange = "2023-08-27 12:32:00 +0000";
layers = (
{
layerId = m01;
shapes = (
{
closed = 1;
nodes = (
(739,205,l),
(739,762,l),
(968,762,l),
(968,848,l),
(646,848,l),
(646,205,l)
);
}
);
vertWidth = 1000;
width = 1000;
}
);
note = uni300C;
unicode = 12300;
},
{
glyphname = cornerbracketright;
lastChange = "2023-08-27 12:32:00 +0000";
layers = (
{
layerId = m01;
shapes = (
{
closed = 1;
nodes = (
(261,555,l),
(261,-2,l),
(32,-2,l),
(32,-88,l),
(354,-88,l),
(354,555,l)
);
}
);
vertWidth = 1000;
width = 1000;
}
);
note = uni300D;
unicode = 12301;
},
{
glyphname = dblanglebracketleft;
lastChange = "2023-08-27 12:32:00 +0000";
layers = (
{
layerId = m01;
shapes = (
{
closed = 1;
nodes = (
(803,827,l),
(736,848,l),
(524,380,l),
(736,-88,l),
(803,-67,l),
(599,380,l)
);
},
{
closed = 1;
nodes = (
(967,827,l),
(900,848,l),
(689,380,l),
(900,-88,l),
(967,-67,l),
(763,380,l)
);
}
);
vertWidth = 1000;
width = 1000;
}
);
note = uni300A;
unicode = 12298;
},
{
glyphname = dblanglebracketright;
lastChange = "2023-08-27 12:32:00 +0000";
layers = (
{
layerId = m01;
shapes = (
{
closed = 1;
nodes = (
(475,380,l),
(263,848,l),
(196,827,l),
(400,380,l),
(196,-67,l),
(263,-88,l)
);
},
{
closed = 1;
nodes = (
(311,380,l),
(99,848,l),
(32,827,l),
(236,380,l),
(32,-67,l),
(99,-88,l)
);
}
);
vertWidth = 1000;
width = 1000;
}
);
note = uni300B;
unicode = 12299;
},
{
glyphname = tortoiseshellbracketleft;
lastChange = "2023-08-27 12:32:00 +0000";
layers = (
{
layerId = m01;
shapes = (
{
closed = 1;
nodes = (
(967,-37,l),
(792,76,l),
(792,684,l),
(967,797,l),
(928,861,l),
(704,716,l),
(704,44,l),
(928,-101,l)
);
}
);
vertWidth = 1000;
width = 1000;
}
);
note = uni3014;
unicode = 12308;
},
{
glyphname = tortoiseshellbracketright;
lastChange = "2023-08-27 12:32:00 +0000";
layers = (
{
layerId = m01;
shapes = (
{
closed = 1;
nodes = (
(33,-37,l),
(208,76,l),
(208,684,l),
(33,797,l),
(72,861,l),
(296,716,l),
(296,44,l),
(72,-101,l)
);
}
);
vertWidth = 1000;
width = 1000;
}
);
note = uni3015;
unicode = 12309;
},
{
glyphname = whitecornerbracketleft;
lastChange = "2023-08-27 12:32:00 +0000";
layers = (
{
layerId = m01;
shapes = (
{
closed = 1;
nodes = (
(968,848,l),
(600,848,l),
(600,187,l),
(780,187,l),
(780,683,l),
(968,683,l)
);
},
{
closed = 1;
nodes = (
(931,721,l),
(742,721,l),
(742,224,l),
(637,224,l),
(637,811,l),
(931,811,l)
);
}
);
vertWidth = 1000;
width = 1000;
}
);
note = uni300E;
unicode = 12302;
},
{
glyphname = whitecornerbracketright;
lastChange = "2023-08-27 12:32:00 +0000";
layers = (
{
layerId = m01;
shapes = (
{
closed = 1;
nodes = (
(32,-88,l),
(400,-88,l),
(400,573,l),
(220,573,l),
(220,77,l),
(32,77,l)
);
},
{
closed = 1;
nodes = (
(69,39,l),
(258,39,l),
(258,536,l),
(363,536,l),
(363,-51,l),
(69,-51,l)
);
}
);
vertWidth = 1000;
width = 1000;
}
);
note = uni300F;
unicode = 12303;
},
{
glyphname = whitelenticularbracketleft;
lastChange = "2023-08-27 12:32:00 +0000";
layers = (
{
layerId = m01;
shapes = (
{
closed = 1;
nodes = (
(889,-35,o),
(771,92,o),
(705,269,o),
(705,380,qs),
(705,492,o),
(771,668,o),
(889,795,o),
(968,831,q),
(968,848,l),
(625,848,l),
(625,-88,l),
(968,-88,l),
(968,-71,l)
);
},
{
closed = 1;
nodes = (
(650,824,l),
(904,824,l),
(869,802,o),
(791,728,o),
(724,621,o),
(681,475,o),
(681,380,qs),
(681,285,o),
(724,139,o),
(791,31,o),
(869,-42,o),
(904,-64,q),
(650,-64,l)
);
}
);
vertWidth = 1000;
width = 1000;
}
);
note = uni3016;
unicode = 12310;
},
{
glyphname = whitelenticularbracketright;
lastChange = "2023-08-27 12:32:00 +0000";
layers = (
{
layerId = m01;
shapes = (
{
closed = 1;
nodes = (
(375,-88,l),
(375,848,l),
(32,848,l),
(32,831,l),
(111,795,o),
(229,668,o),
(295,492,o),
(295,380,qs),
(295,269,o),
(229,92,o),
(111,-35,o),
(32,-71,q),
(32,-88,l)
);
},
{
closed = 1;
nodes = (
(131,-42,o),
(209,32,o),
(276,139,o),
(319,285,o),
(319,380,qs),
(319,475,o),
(276,621,o),
(209,729,o),
(131,802,o),
(96,824,q),
(350,824,l),
(350,-64,l),
(96,-64,l)
);
}
);
vertWidth = 1000;
width = 1000;
}
);
note = uni3017;
unicode = 12311;
},
{
glyphname = anglebracketleft.vert;
lastChange = "2023-08-27 12:32:00 +0000";
layers = (
{
layerId = m01;
shapes = (
{
closed = 1;
nodes = (
(934,-67,l),
(968,11,l),
(500,304,l),
(32,11,l),
(66,-67,l),
(500,204,l)
);
}
);
vertWidth = 1000;
width = 1000;
}
);
note = uniFE3F;
unicode = 65087;
},
{
glyphname = anglebracketright.vert;
lastChange = "2023-08-27 12:32:00 +0000";
layers = (
{
layerId = m01;
shapes = (
{
closed = 1;
nodes = (
(66,827,l),
(32,749,l),
(500,456,l),
(968,749,l),
(934,827,l),
(500,556,l)
);
}
);
vertWidth = 1000;
width = 1000;
}
);
note = uniFE40;
unicode = 65088;
},
{
glyphname = blacklenticularbracketleft.vert;
lastChange = "2023-08-27 12:32:00 +0000";
layers = (
{
layerId = m01;
shapes = (
{
closed = 1;
nodes = (
(968,216,l),
(32,216,l),
(32,-88,l),
(37,-88,l),
(83,-33,o),
(222,56,o),
(398,110,o),
(500,110,qs),
(602,110,o),
(778,56,o),
(918,-33,o),
(963,-88,q),
(968,-88,l)
);
}
);
vertWidth = 1000;
width = 1000;
}
);
note = uniFE3B;
unicode = 65083;
},
{
glyphname = blacklenticularbracketright.vert;
lastChange = "2023-08-27 12:32:00 +0000";
layers = (
{
layerId = m01;
shapes = (
{
closed = 1;
nodes = (
(968,848,l),
(963,848,l),
(918,794,o),
(778,704,o),
(602,650,o),
(500,650,qs),
(398,650,o),
(222,704,o),
(83,794,o),
(37,848,q),
(32,848,l),
(32,544,l),
(968,544,l)
);
}
);
vertWidth = 1000;
width = 1000;
}
);
note = uniFE3C;
unicode = 65084;
},
{
glyphname = bracketleft.full;
lastChange = "2023-08-27 12:32:00 +0000";
layers = (
{
layerId = m01;
shapes = (
{
closed = 1;
nodes = (
(968,-88,l),
(968,-24,l),
(799,-24,l),
(799,784,l),
(968,784,l),
(968,848,l),
(712,848,l),
(712,-88,l)
);
}
);
vertWidth = 1000;
width = 1000;
}
);
note = uniFF3B;
unicode = 65339;
},
{
glyphname = bracketright.full;
lastChange = "2023-08-27 12:32:00 +0000";
layers = (
{
layerId = m01;
shapes = (
{
closed = 1;
nodes = (
(32,-88,l),
(32,-24,l),
(201,-24,l),
(201,784,l),
(32,784,l),
(32,848,l),
(288,848,l),
(288,-88,l)
);
}
);
vertWidth = 1000;
width = 1000;
}
);
note = uniFF3D;
unicode = 65341;
},
{
glyphname = cornerbracketleft.vert;
lastChange = "2023-08-27 12:32:00 +0000";
layers = (
{
layerId = m01;
shapes = (
{
closed = 1;
nodes = (
(275,145,l),
(882,145,l),
(882,-88,l),
(975,-88,l),
(975,234,l),
(275,234,l)
);
}
);
vertWidth = 1000;
width = 1000;
}
);
note = uniFE41;
unicode = 65089;
},
{
glyphname = cornerbracketright.vert;
lastChange = "2023-08-27 12:32:00 +0000";
layers = (
{
layerId = m01;
shapes = (
{
closed = 1;
nodes = (
(725,604,l),
(118,604,l),
(118,837,l),
(25,837,l),
(25,515,l),
(725,515,l)
);
}
);
vertWidth = 1000;
width = 1000;
}
);
note = uniFE42;
unicode = 65090;
},
{
glyphname = dblanglebracketleft.vert;
lastChange = "2023-08-27 12:32:00 +0000";
layers = (
{
layerId = m01;
shapes = (
{
closed = 1;
nodes = (
(947,76,l),
(968,143,l),
(500,355,l),
(32,143,l),
(53,76,l),
(500,280,l)
);
},
{
closed = 1;
nodes = (
(947,-88,l),
(968,-21,l),
(500,191,l),
(32,-21,l),
(53,-88,l),
(500,116,l)
);
}
);
vertWidth = 1000;
width = 1000;
}
);
note = uniFE3D;
unicode = 65085;
},
{
glyphname = dblanglebracketright.vert;
lastChange = "2023-08-27 12:32:00 +0000";
layers = (
{
layerId = m01;
shapes = (
{
closed = 1;
nodes = (
(53,684,l),
(32,617,l),
(500,405,l),
(968,617,l),
(947,684,l),
(500,480,l)
);
},
{
closed = 1;
nodes = (
(53,848,l),
(32,781,l),
(500,569,l),
(968,781,l),
(947,848,l),
(500,644,l)
);
}
);
vertWidth = 1000;
width = 1000;
}
);
note = uniFE3E;
unicode = 65086;
},
{
glyphname = parenleft.full;
lastChange = "2023-08-27 12:32:00 +0000";
layers = (
{
layerId = m01;
shapes = (
{
closed = 1;
nodes = (
(732,104,o),
(822,-40,o),
(879,-98,q),
(955,-62,l),
(900,-4,o),
(818,130,o),
(771,288,o),
(771,380,qs),
(771,473,o),
(818,630,o),
(900,765,o),
(955,822,q),
(879,858,l),
(822,800,o),
(732,656,o),
(681,482,o),
(681,380,qs),
(681,279,o)
);
}
);
vertWidth = 1000;
width = 1000;
}
);
note = uniFF08;
unicode = 65288;
},
{
glyphname = parenright.full;
lastChange = "2023-08-27 12:32:00 +0000";
layers = (
{
layerId = m01;
shapes = (
{
closed = 1;
nodes = (
(268,656,o),
(178,800,o),
(121,858,q),
(45,822,l),
(100,765,o),
(182,630,o),
(229,473,o),
(229,380,qs),
(229,288,o),
(182,130,o),
(100,-4,o),
(45,-62,q),
(121,-98,l),
(178,-40,o),
(268,104,o),
(319,279,o),
(319,380,qs),
(319,482,o)
);
}
);
vertWidth = 1000;
width = 1000;
}
);
note = uniFF09;
unicode = 65289;
},
{
glyphname = tortoiseshellbracketleft.vert;
lastChange = "2023-08-27 12:32:00 +0000";
layers = (
{
layerId = m01;
shapes = (
{
closed = 1;
nodes = (
(83,-87,l),
(196,88,l),
(804,88,l),
(917,-87,l),
(981,-48,l),
(836,176,l),
(164,176,l),
(19,-48,l)
);
}
);
vertWidth = 1000;
width = 1000;
}
);
note = uniFE39;
unicode = 65081;
},
{
glyphname = tortoiseshellbracketright.vert;
lastChange = "2023-08-27 12:32:00 +0000";
layers = (
{
layerId = m01;
shapes = (
{
closed = 1;
nodes = (
(83,847,l),
(196,672,l),
(804,672,l),
(917,847,l),
(981,808,l),
(836,584,l),
(164,584,l),
(19,808,l)
);
}
);
vertWidth = 1000;
width = 1000;
}
);
note = uniFE3A;
unicode = 65082;
},
{
glyphname = whitecornerbracketleft.vert;
lastChange = "2023-08-27 12:32:00 +0000";
layers = (
{
layerId = m01;
shapes = (
{
closed = 1;
nodes = (
(968,-88,l),
(968,265,l),
(307,265,l),
(307,100,l),
(793,100,l),
(793,-88,l)
);
},
{
closed = 1;
nodes = (
(831,-51,l),
(831,137,l),
(344,137,l),
(344,227,l),
(931,227,l),
(931,-51,l)
);
}
);
vertWidth = 1000;
width = 1000;
}
);
note = uniFE43;
unicode = 65091;
},
{
glyphname = whitecornerbracketright.vert;
lastChange = "2023-08-27 12:32:00 +0000";
layers = (
{
layerId = m01;
shapes = (
{
closed = 1;
nodes = (
(32,848,l),
(32,495,l),
(693,495,l),
(693,660,l),
(207,660,l),
(207,848,l)
);
},
{
closed = 1;
nodes = (
(169,811,l),
(169,623,l),
(656,623,l),
(656,533,l),
(69,533,l),
(69,811,l)
);
}
);
vertWidth = 1000;
width = 1000;
}
);
note = uniFE44;
unicode = 65092;
},
{
glyphname = whitelenticularbracketleft.vert;
lastChange = "2023-08-27 12:32:00 +0000";
layers = (
{
layerId = m01;
shapes = (
{
closed = 1;
nodes = (
(85,-9,o),
(212,109,o),
(389,175,o),
(500,175,qs),
(612,175,o),
(788,109,o),
(915,-9,o),
(951,-88,q),
(968,-88,l),
(968,255,l),
(32,255,l),
(32,-88,l),
(49,-88,l)
);
},
{
closed = 1;
nodes = (
(944,230,l),
(944,-24,l),
(922,11,o),
(848,89,o),
(741,156,o),
(595,199,o),
(500,199,qs),
(405,199,o),
(259,156,o),
(151,89,o),
(78,11,o),
(56,-24,q),
(56,230,l)
);
}
);
vertWidth = 1000;
width = 1000;
}
);
note = uniFE17;
unicode = 65047;
},
{
glyphname = whitelenticularbracketright.vert;
lastChange = "2023-08-27 12:32:00 +0000";
layers = (
{
layerId = m01;
shapes = (
{
closed = 1;
nodes = (
(32,505,l),
(968,505,l),
(968,848,l),
(951,848,l),
(915,769,o),
(788,651,o),
(612,585,o),
(500,585,qs),
(389,585,o),
(212,651,o),
(85,769,o),
(49,848,q),
(32,848,l)
);
},
{
closed = 1;
nodes = (
(78,749,o),
(152,671,o),
(259,604,o),
(405,561,o),
(500,561,qs),
(595,561,o),
(741,604,o),
(849,671,o),
(922,749,o),
(944,784,q),
(944,530,l),
(56,530,l),
(56,784,l)
);
}
);
vertWidth = 1000;
width = 1000;
}
);
note = uniFE18;
unicode = 65048;
},
{
glyphname = braceleft.full.vert;
lastChange = "2023-08-27 12:32:00 +0000";
layers = (
{
layerId = m01;
shapes = (
{
closed = 1;
nodes = (
(87,-88,l),
(87,-56,ls),
(87,-14,o),
(130,14,o),
(181,14,qs),
(230,14,o),
(321,9,o),
(375,9,qs),
(432,9,o),
(488,42,o),
(498,80,q),
(502,80,l),
(513,42,o),
(569,9,o),
(625,9,qs),
(680,9,o),
(771,14,o),
(819,14,qs),
(871,14,o),
(913,-14,o),
(913,-56,qs),
(913,-88,l),
(976,-88,l),
(976,-33,ls),
(976,35,o),
(912,100,o),
(824,100,qs),
(786,100,o),
(720,95,o),
(656,90,o),
(619,90,qs),
(598,90,o),
(560,107,o),
(535,149,o),
(534,185,q),
(466,185,l),
(466,149,o),
(440,107,o),
(403,90,o),
(382,90,qs),
(345,90,o),
(281,95,o),
(215,100,o),
(176,100,qs),
(89,100,o),
(25,35,o),
(25,-33,qs),
(25,-88,l)
);
}
);
vertWidth = 1000;
width = 1000;
}
);
note = uniFE37;
unicode = 65079;
},
{
glyphname = braceright.full.vert;
lastChange = "2023-08-27 12:32:00 +0000";
layers = (
{
layerId = m01;
shapes = (
{
closed = 1;
nodes = (
(913,848,l),
(913,816,ls),
(913,774,o),
(871,746,o),
(819,746,qs),
(770,746,o),
(679,751,o),
(625,751,qs),
(569,751,o),
(512,718,o),
(502,680,q),
(498,680,l),
(488,718,o),
(431,751,o),
(375,751,qs),
(320,751,o),
(229,746,o),
(181,746,qs),
(129,746,o),
(87,774,o),
(87,816,qs),
(87,848,l),
(24,848,l),
(24,793,ls),
(24,725,o),
(88,660,o),
(176,660,qs),
(215,660,o),
(280,665,o),
(344,670,o),
(381,670,qs),
(402,670,o),
(440,653,o),
(465,612,o),
(466,575,q),
(534,575,l),
(534,612,o),
(560,653,o),
(598,670,o),
(618,670,qs),
(655,670,o),
(719,665,o),
(785,660,o),
(824,660,qs),
(911,660,o),
(975,725,o),
(975,793,qs),
(975,848,l)
);
}
);
vertWidth = 1000;
width = 1000;
}
);
note = uniFE38;
unicode = 65080;
},
{
glyphname = bracketleft.full.vert;
lastChange = "2023-08-27 12:32:00 +0000";
layers = (
{
layerId = m01;
shapes = (
{
closed = 1;
nodes = (
(32,-88,l),
(96,-88,l),
(96,81,l),
(904,81,l),
(904,-88,l),
(968,-88,l),
(968,168,l),
(32,168,l)
);
}
);
vertWidth = 1000;
width = 1000;
}
);
note = uniFE47;
unicode = 65095;
},
{
glyphname = bracketright.full.vert;
lastChange = "2023-08-27 12:32:00 +0000";
layers = (
{
layerId = m01;
shapes = (
{
closed = 1;
nodes = (
(32,848,l),
(96,848,l),
(96,679,l),
(904,679,l),
(904,848,l),
(968,848,l),
(968,592,l),
(32,592,l)
);
}
);
vertWidth = 1000;
width = 1000;
}
);
note = uniFE48;
unicode = 65096;
},
{
glyphname = parenleft.full.vert;
lastChange = "2023-08-27 12:32:00 +0000";
layers = (
{
layerId = m01;
shapes = (
{
closed = 1;
nodes = (
(224,148,o),
(80,58,o),
(22,1,q),
(58,-75,l),
(116,-20,o),
(250,62,o),
(408,109,o),
(500,109,qs),
(593,109,o),
(750,62,o),
(885,-20,o),
(942,-75,q),
(978,1,l),
(920,58,o),
(776,148,o),
(602,199,o),
(500,199,qs),
(399,199,o)
);
}
);
vertWidth = 1000;
width = 1000;
}
);
note = uniFE35;
unicode = 65077;
},
{
glyphname = parenright.full.vert;
lastChange = "2023-08-27 12:32:00 +0000";
layers = (
{
layerId = m01;
shapes = (
{
closed = 1;
nodes = (
(776,612,o),
(920,702,o),
(978,759,q),
(942,835,l),
(885,780,o),
(750,698,o),
(593,651,o),
(500,651,qs),
(408,651,o),
(250,698,o),
(116,780,o),
(58,835,q),
(22,759,l),
(80,702,o),
(224,612,o),
(399,561,o),
(500,561,qs),
(602,561,o)
);
}
